<svg width="1075" height="585" viewBox="0 0 1075 585" fill="none" xmlns="http://www.w3.org/2000/svg">
<path d="M321.311 433.517H285.777V328.877C285.777 323.32 283.569 317.989 279.639 314.059C275.709 310.129 270.379 307.922 264.821 307.922H256.495C253.743 307.922 251.018 308.464 248.475 309.517C245.933 310.57 243.623 312.113 241.677 314.059C239.731 316.005 238.187 318.315 237.134 320.858C236.081 323.4 235.539 326.125 235.539 328.877V433.517H135.309C133.247 433.517 131.22 432.984 129.425 431.97C127.629 430.955 126.127 429.494 125.062 427.728C123.998 425.962 123.408 423.951 123.35 421.89C123.292 419.829 123.768 417.788 124.731 415.965L230.814 215.184C232.136 212.681 232.938 209.936 233.17 207.114C233.402 204.293 233.061 201.453 232.165 198.768C231.27 196.082 229.84 193.605 227.961 191.487C226.082 189.37 223.793 187.654 221.233 186.445L214.971 183.488C210.108 181.192 204.549 180.853 199.444 182.541C194.338 184.23 190.077 187.816 187.542 192.558L58.1602 434.591C55.957 438.712 54.8043 443.314 54.8043 447.987C54.8043 451.719 55.5393 455.414 56.9673 458.861C58.3954 462.309 60.4885 465.441 63.1271 468.08C65.7658 470.719 68.8983 472.812 72.3459 474.24C75.7935 475.668 79.4885 476.403 83.2202 476.403H235.539V542.57C235.539 545.869 236.189 549.135 237.451 552.183C238.713 555.23 240.564 557.999 242.896 560.332C245.229 562.664 247.998 564.515 251.045 565.777C254.093 567.039 257.359 567.689 260.658 567.689C263.957 567.689 267.223 567.039 270.271 565.777C273.318 564.515 276.087 562.664 278.42 560.332C280.752 557.999 282.603 555.23 283.865 552.183C285.127 549.135 285.777 545.869 285.777 542.57V476.403H321.311C326.998 476.403 332.452 474.144 336.474 470.122C340.495 466.101 342.754 460.647 342.754 454.96C342.754 449.273 340.495 443.819 336.474 439.797C332.453 435.776 326.998 433.517 321.311 433.517Z" fill="#E6E993"/>
<path d="M979.308 433.517H943.774V328.877C943.774 323.32 941.566 317.989 937.636 314.059C933.706 310.129 928.376 307.922 922.818 307.922H914.491C911.739 307.922 909.014 308.464 906.472 309.517C903.929 310.57 901.619 312.113 899.673 314.059C897.727 316.005 896.184 318.315 895.131 320.858C894.077 323.4 893.535 326.125 893.535 328.877V433.517H793.305C791.243 433.517 789.216 432.984 787.421 431.97C785.626 430.955 784.123 429.494 783.059 427.728C781.995 425.962 781.405 423.951 781.347 421.89C781.289 419.829 781.764 417.788 782.728 415.965L888.81 215.184C890.133 212.681 890.934 209.936 891.167 207.114C891.399 204.293 891.057 201.453 890.162 198.768C889.266 196.082 887.836 193.605 885.957 191.487C884.078 189.37 881.79 187.654 879.23 186.445L872.967 183.488C868.105 181.192 862.546 180.853 857.44 182.541C852.334 184.23 848.073 187.816 845.538 192.558L716.157 434.591C713.953 438.712 712.801 443.314 712.801 447.987C712.801 455.523 715.795 462.751 721.124 468.08C726.453 473.409 733.68 476.403 741.217 476.403H893.535V542.57C893.535 549.232 896.182 555.621 900.893 560.332C905.603 565.043 911.992 567.689 918.654 567.689C925.316 567.689 931.706 565.043 936.416 560.332C941.127 555.621 943.773 549.232 943.773 542.57V476.403H979.308C984.995 476.403 990.449 474.144 994.47 470.122C998.492 466.101 1000.75 460.647 1000.75 454.96C1000.75 449.273 998.492 443.819 994.47 439.797C990.449 435.776 984.995 433.517 979.308 433.517Z" fill="#E6E993"/>
<path d="M555.66 471.32C611.806 471.32 657.32 425.806 657.32 369.66C657.32 313.515 611.806 268 555.66 268C499.515 268 454 313.515 454 369.66C454 425.806 499.515 471.32 555.66 471.32Z" fill="#FF6584"/>
<path d="M520.426 167.01C434.482 167.01 372.775 222.149 372.775 350.808C372.775 496.621 434.482 535.218 520.426 535.218C606.37 535.218 671.753 492.945 671.753 350.808C671.753 198.868 606.37 167.01 520.426 167.01ZM520.991 486.818C461.464 486.818 430.365 451.895 430.365 350.902C430.365 261.79 462.737 214.797 522.264 214.797C581.791 214.797 614.163 245.665 614.163 350.902C614.163 449.349 580.517 486.818 520.991 486.818Z" fill="#0779E4"/>
<g filter="url(#filter0_d)">
<path d="M590.208 457.703C590.208 461.025 559.421 471 521.445 471C483.468 471 452.681 461.025 452.681 457.703C452.681 454.381 483.468 458.969 521.445 458.969C559.421 458.969 590.208 454.381 590.208 457.703Z" fill="#3F3D56"/>
<path opacity="0.2" d="M590.208 457.703C590.208 461.025 559.421 471 521.445 471C483.468 471 452.681 461.025 452.681 457.703C452.681 454.381 483.468 458.969 521.445 458.969C559.421 458.969 590.208 454.381 590.208 457.703Z" fill="black"/>
<path d="M521.445 463.718C559.421 463.718 590.208 461.025 590.208 457.703C590.208 454.381 559.421 451.687 521.445 451.687C483.468 451.687 452.681 454.381 452.681 457.703C452.681 461.025 483.468 463.718 521.445 463.718Z" fill="#3F3D56"/>
<path opacity="0.2" d="M520.916 460.947C536.545 460.947 549.214 459.764 549.214 458.305C549.214 456.846 536.545 455.663 520.916 455.663C505.287 455.663 492.617 456.846 492.617 458.305C492.617 459.764 505.287 460.947 520.916 460.947Z" fill="black"/>
<path d="M576.027 397.598H545.115V397.794H471.195V408.496C471.195 436.005 493.515 458.305 521.048 458.305H521.048C529.762 458.308 538.324 456.029 545.88 451.694C553.437 447.358 559.723 441.119 564.113 433.598H576.027C580.805 433.598 585.387 431.702 588.766 428.326C592.145 424.951 594.043 420.372 594.043 415.598C594.043 410.824 592.145 406.246 588.766 402.87C585.387 399.495 580.805 397.598 576.027 397.598ZM576.027 428.049H566.911C569.552 421.869 570.909 415.216 570.901 408.496V403.147H576.027C579.332 403.147 582.502 404.459 584.839 406.794C587.176 409.129 588.489 412.296 588.489 415.598C588.489 418.901 587.176 422.068 584.839 424.403C582.502 426.738 579.332 428.049 576.027 428.049Z" fill="#3F3D56"/>
<path d="M475.823 402.418V408.496C475.823 433.411 496.111 453.681 521.048 453.681C545.985 453.681 566.273 433.411 566.273 408.496V402.418H475.823Z" fill="#F9A826"/>
<path d="M509.223 445.402L498.869 434.74C497.824 433.665 497.25 432.218 497.273 430.719C497.295 429.22 497.913 427.792 498.99 426.748L514.649 411.567C515.023 411.205 515.463 410.919 515.946 410.727L519.347 409.369C520.081 409.076 520.885 409.007 521.658 409.172C522.431 409.337 523.137 409.727 523.687 410.294L534.499 421.427C535.032 421.976 535.396 422.667 535.547 423.417C535.697 424.168 535.628 424.945 535.348 425.657L534.204 428.565C533.996 429.093 533.677 429.57 533.27 429.965L517.223 445.522C516.146 446.566 514.698 447.14 513.198 447.117C511.698 447.095 510.268 446.477 509.223 445.402Z" fill="#E6E6E6"/>
<path d="M530.214 419.605L525.184 414.426L524.406 415.18L529.436 420.359L530.214 419.605Z" fill="#3F3D56"/>
<path d="M527.801 417.665C528.717 415.495 531.445 415.028 533.474 414.597C535.631 414.14 538.088 413.344 538.984 411.103C539.177 410.644 539.252 410.144 539.201 409.649C539.151 409.154 538.976 408.679 538.694 408.269C538.167 407.513 537.279 406.898 536.319 406.984C534.31 407.164 533.953 409.534 534.72 411.03C535.756 413.049 538.416 413.225 540.407 413.275C542.33 413.323 544.394 413.25 546.151 412.381C546.979 411.979 547.671 411.343 548.141 410.553C548.612 409.762 548.841 408.851 548.8 407.932C548.738 405.993 547.882 404.185 547.37 402.342C546.879 400.571 546.724 398.608 548.033 397.135C549.3 395.708 551.298 395.145 553.119 394.857C553.587 394.783 554.058 394.732 554.53 394.694C555.035 394.654 555.04 393.861 554.53 393.902C551.152 394.173 546.726 395.336 546.241 399.321C546.019 401.142 546.708 402.939 547.264 404.639C547.781 406.22 548.385 408.041 547.724 409.671C547.03 411.382 545.234 412.079 543.532 412.34C542.614 412.466 541.688 412.516 540.762 412.49C539.689 412.517 538.617 412.41 537.572 412.169C536.676 411.924 535.812 411.454 535.388 410.595C535.075 409.964 534.976 409.112 535.326 408.475C535.417 408.312 535.541 408.17 535.69 408.056C535.838 407.943 536.009 407.861 536.19 407.816C536.371 407.77 536.56 407.763 536.745 407.793C536.929 407.823 537.106 407.891 537.263 407.991C537.646 408.205 537.959 408.525 538.164 408.913C538.369 409.301 538.457 409.74 538.417 410.177C538.127 412.423 535.557 413.325 533.677 413.743C531.604 414.205 529.267 414.543 527.787 416.237C527.472 416.6 527.219 417.011 527.036 417.454C527.009 417.556 527.022 417.664 527.074 417.755C527.126 417.846 527.212 417.914 527.313 417.942C527.414 417.967 527.522 417.953 527.612 417.901C527.703 417.85 527.771 417.765 527.801 417.665Z" fill="#3F3D56"/>
<path d="M495.791 414.441C497.397 414.441 498.7 413.14 498.7 411.534C498.7 409.929 497.397 408.628 495.791 408.628C494.184 408.628 492.881 409.929 492.881 411.534C492.881 413.14 494.184 414.441 495.791 414.441Z" fill="#E6E6E6"/>
<path d="M549.214 425.275C550.821 425.275 552.124 423.974 552.124 422.368C552.124 420.763 550.821 419.462 549.214 419.462C547.608 419.462 546.305 420.763 546.305 422.368C546.305 423.974 547.608 425.275 549.214 425.275Z" fill="#E6E6E6"/>
<path d="M534.668 439.808C535.837 439.808 536.784 438.862 536.784 437.694C536.784 436.527 535.837 435.58 534.668 435.58C533.5 435.58 532.553 436.527 532.553 437.694C532.553 438.862 533.5 439.808 534.668 439.808Z" fill="#E6E6E6"/>
<path d="M459.246 456.781C467.885 458.707 477.42 457.284 477.42 457.284C477.42 457.284 472.947 452.739 464.307 450.814C455.668 448.888 446.133 450.311 446.133 450.311C446.133 450.311 450.606 454.856 459.246 456.781Z" fill="#E6E6E6"/>
<path d="M460.098 460.029C469.504 460.3 477.486 457.271 477.486 457.271C472.212 454.99 466.555 453.721 460.811 453.532C451.404 453.26 443.422 456.289 443.422 456.289C448.697 458.57 454.354 459.839 460.098 460.029Z" fill="#F9A826"/>
<path d="M460.766 453.543C467.486 456.927 477.382 457.351 477.382 457.351C477.382 457.351 476.383 452.286 469.663 448.901C462.944 445.516 453.047 445.093 453.047 445.093C453.047 445.093 454.046 450.158 460.766 453.543Z" fill="#F9A826"/>
<path opacity="0.3" d="M475.691 402.55V408.628C475.691 433.543 495.979 453.813 520.916 453.813C545.853 453.813 566.141 433.543 566.141 408.628V402.55H475.691Z" fill="#F9A826"/>
<path d="M561.482 402.121L556.925 404.418C556.49 404.657 555.977 404.714 555.5 404.576C555.022 404.438 554.619 404.116 554.378 403.681L551.243 397.471C551.168 397.322 551.125 397.159 551.117 396.993L551.057 395.813C551.05 395.549 551.119 395.289 551.256 395.063C551.394 394.837 551.594 394.656 551.832 394.541L556.59 392.143C556.818 392.024 557.074 391.971 557.33 391.989C557.586 392.008 557.831 392.097 558.039 392.248L558.844 392.859C558.989 392.969 559.107 393.11 559.19 393.273L562.403 399.637C562.61 400.089 562.629 400.604 562.456 401.069C562.284 401.535 561.933 401.913 561.482 402.121Z" fill="#E6E6E6"/>
<path d="M555.534 393.32L553.32 394.436L553.476 394.744L555.69 393.628L555.534 393.32Z" fill="#3F3D56"/>
<path d="M557.852 394.442L552.942 396.889L553.65 398.308L558.561 395.861L557.852 394.442Z" fill="#F9A826"/>
<path d="M558.91 396.292L554 398.739L554.708 400.157L559.618 397.711L558.91 396.292Z" fill="#F9A826"/>
<path d="M559.968 398.406L555.058 400.853L555.766 402.271L560.676 399.825L559.968 398.406Z" fill="#F9A826"/>
</g>
<defs>
<filter id="filter0_d" x="417" y="292" width="209" height="187" filterUnits="userSpaceOnUse" color-interpolation-filters="sRGB">
<feFlood flood-opacity="0" result="BackgroundImageFix"/>
<feColorMatrix in="SourceAlpha" type="matrix" values="0 0 0 0 0 0 0 0 0 0 0 0 0 0 0 0 0 0 127 0"/>
<feOffset dy="4"/>
<feGaussianBlur stdDeviation="2"/>
<feColorMatrix type="matrix" values="0 0 0 0 0 0 0 0 0 0 0 0 0 0 0 0 0 0 0.25 0"/>
<feBlend mode="normal" in2="BackgroundImageFix" result="effect1_dropShadow"/>
<feBlend mode="normal" in="SourceGraphic" in2="effect1_dropShadow" result="shape"/>
</filter>
</defs>
</svg>
